<?xml version="1.0" encoding="UTF-8"?>
<svg width="44px" height="44px" viewBox="0 0 44 44" version="1.1" xmlns="http://www.w3.org/2000/svg" xmlns:xlink="http://www.w3.org/1999/xlink">
    <!-- Generator: Sketch 50 (54983) - http://www.bohemiancoding.com/sketch -->
    <title>Layer_1</title>
    <desc>Created with Sketch.</desc>
    <defs></defs>
    <g id="Symbols" stroke="none" stroke-width="1" fill="none" fill-rule="evenodd">
        <g id="footer" transform="translate(-1023.000000, 0.000000)">
            <g id="Layer_1">
                <g transform="translate(1023.000000, 0.000000)">
                    <g id="Group">
                        <rect id="Rectangle-path" fill="#0F1031" x="0.00044" y="0" width="43.99912" height="44"></rect>
                        <g transform="translate(7.040000, 7.040000)" fill="#FFFFFF" id="Shape">
                            <path d="M1.0857,6.24382 L1.96768,6.24382 C2.2253,6.24382 2.39844,6.19564 2.4871,6.09884 C2.57554,6.00204 2.61998,5.8652 2.61998,5.6881 L2.61998,0.11924 L5.2657,0.11924 L5.2657,6.1347 C5.2657,6.8838 5.09432,7.41136 4.752,7.71738 C4.40968,8.02362 3.86408,8.1763 3.11542,8.1763 L1.08592,8.1763 L1.08592,6.24382 L1.0857,6.24382 Z"></path>
                            <polygon points="7.29454 0.11924 10.02496 0.11924 10.02496 8.17652 7.29454 8.17652"></polygon>
                            <polygon points="12.078 0.11924 14.19198 0.11924 16.41442 3.22366 16.41442 0.11924 18.93914 0.11924 18.93914 8.17652 16.81306 8.17652 14.6025 5.0842 14.6025 8.17652 12.078 8.17652"></polygon>
                            <path d="M3.17526,10.85722 L5.1084,10.85722 L8.16464,18.9145 L5.6276,18.9145 L5.36206,18.18982 L2.92182,18.18982 L2.65584,18.9145 L0.11946,18.9145 L3.17526,10.85722 Z M4.68534,16.41398 L4.14216,15.00048 L3.5981,16.41398 L4.68534,16.41398 Z"></path>
                            <polygon points="9.55372 10.85722 11.6677 10.85722 13.89014 13.96186 13.89014 10.85722 16.41486 10.85722 16.41486 18.9145 14.28856 18.9145 12.078 15.82196 12.078 18.9145 9.55372 18.9145"></polygon>
                            <path d="M18.4679,18.9145 L18.4679,10.85722 L20.70244,10.85722 C21.45946,10.85722 22.1342,10.9417 22.72578,11.11088 C23.31758,11.28006 23.81676,11.53394 24.22376,11.87208 C24.63054,12.21022 24.9403,12.63108 25.15392,13.134 C25.36754,13.6378 25.47402,14.2197 25.47402,14.8797 C25.47402,15.54014 25.36754,16.12182 25.15392,16.62518 C24.9403,17.12854 24.63054,17.5494 24.22376,17.88776 C23.81676,18.22568 23.3178,18.48154 22.72578,18.65468 C22.1342,18.82804 21.45946,18.9145 20.70244,18.9145 L18.4679,18.9145 L18.4679,18.9145 Z M21.04102,16.61924 C21.64492,16.61924 22.11176,16.47624 22.4422,16.19046 C22.77242,15.90446 22.93742,15.46754 22.93742,14.8797 C22.93742,14.29208 22.77242,13.85736 22.4422,13.57532 C22.11176,13.2935 21.64492,13.15226 21.04102,13.15226 L21.04102,16.61924 L21.04102,16.61924 Z"></path>
                            <path d="M0.60258,25.62978 C0.60258,24.9854 0.71522,24.40394 0.94094,23.8843 C1.166,23.36466 1.47224,22.9196 1.85878,22.54912 C2.24532,22.17886 2.69632,21.89506 3.21156,21.69772 C3.7268,21.5006 4.27482,21.40204 4.8543,21.40204 C5.31366,21.40204 5.72176,21.44604 6.08036,21.5347 C6.43852,21.62358 6.74652,21.7239 7.00458,21.83676 C7.30246,21.96524 7.5603,22.1067 7.77788,22.25938 L6.50936,24.49414 C6.38044,24.39778 6.23898,24.30538 6.08674,24.2165 C5.94968,24.15204 5.786,24.08956 5.59724,24.02906 C5.40782,23.96856 5.19266,23.93842 4.9511,23.93842 C4.70118,23.93842 4.47172,23.98286 4.2625,24.0713 C4.05306,24.15952 3.87002,24.28052 3.71272,24.43364 C3.55608,24.58654 3.4331,24.76562 3.34422,24.9711 C3.25556,25.17636 3.21134,25.39592 3.21134,25.62934 C3.21134,25.86298 3.25732,26.08232 3.35038,26.28736 C3.44256,26.49306 3.5695,26.67236 3.73076,26.82504 C3.8918,26.97794 4.081,27.09894 4.29836,27.18738 C4.51572,27.27604 4.75354,27.32026 5.01138,27.32026 C5.26856,27.32026 5.49868,27.28836 5.69998,27.22346 C5.90084,27.15922 6.07002,27.08684 6.20708,27.0061 C6.36812,26.9181 6.50914,26.81316 6.6297,26.69216 L7.89822,28.92714 C7.68086,29.10402 7.42324,29.26154 7.12536,29.39838 C6.86752,29.51102 6.55732,29.61574 6.19498,29.71232 C5.83286,29.80868 5.41772,29.85708 4.9511,29.85708 C4.323,29.85708 3.74308,29.75434 3.21134,29.54952 C2.68004,29.34404 2.22068,29.05606 1.83414,28.68536 C1.44804,28.3151 1.14598,27.87026 0.9284,27.35106 C0.71104,26.83186 0.60258,26.25788 0.60258,25.62978 Z"></path>
                            <path d="M8.50256,25.62978 C8.50256,25.04986 8.61322,24.5025 8.83498,23.98682 C9.0563,23.47158 9.35814,23.02234 9.74094,22.63998 C10.1233,22.25762 10.5721,21.95556 11.08756,21.73402 C11.60302,21.51248 12.15082,21.40204 12.7303,21.40204 C13.31066,21.40204 13.8578,21.51226 14.37326,21.73402 C14.88872,21.95556 15.33796,22.25762 15.72054,22.63998 C16.1029,23.02234 16.40474,23.47158 16.6265,23.98682 C16.84782,24.5025 16.95848,25.04986 16.95848,25.62978 C16.95848,26.2097 16.84782,26.75728 16.6265,27.27252 C16.40474,27.7882 16.1029,28.237 15.72054,28.61936 C15.33818,29.00216 14.88894,29.30378 14.37326,29.52532 C13.85802,29.74708 13.31066,29.85752 12.7303,29.85752 C12.15082,29.85752 11.60302,29.74708 11.08756,29.52532 C10.57232,29.30378 10.12352,29.00216 9.74094,28.61936 C9.35814,28.237 9.0563,27.7882 8.83498,27.27252 C8.61344,26.75728 8.50256,26.2097 8.50256,25.62978 Z M11.03916,25.62978 C11.03916,25.86342 11.0836,26.08276 11.17204,26.2878 C11.26092,26.4935 11.3817,26.6728 11.53482,26.82548 C11.6875,26.97838 11.8668,27.09938 12.07184,27.18782 C12.2771,27.27648 12.49644,27.3207 12.73008,27.3207 C12.96372,27.3207 13.18306,27.2767 13.38876,27.18782 C13.59424,27.09938 13.77332,26.97838 13.92622,26.82548 C14.07934,26.6728 14.1999,26.49328 14.28856,26.2878 C14.377,26.08254 14.42144,25.86342 14.42144,25.62978 C14.42144,25.39614 14.377,25.17658 14.28856,24.97154 C14.1999,24.76584 14.07912,24.58698 13.92622,24.43408 C13.7731,24.28096 13.59424,24.15996 13.38876,24.07174 C13.18306,23.9833 12.96372,23.93886 12.73008,23.93886 C12.49644,23.93886 12.2771,23.9833 12.07184,24.07174 C11.86658,24.15996 11.6875,24.28096 11.53482,24.43408 C11.3817,24.58698 11.2607,24.76606 11.17204,24.97154 C11.0836,25.17658 11.03916,25.39636 11.03916,25.62978 Z"></path>
                        </g>
                    </g>
                </g>
            </g>
        </g>
    </g>
</svg>