<?xml version="1.0" encoding="UTF-8"?>
<svg width="48px" height="41px" viewBox="0 0 48 41" version="1.1" xmlns="http://www.w3.org/2000/svg" xmlns:xlink="http://www.w3.org/1999/xlink">
    <!-- Generator: Sketch 50 (54983) - http://www.bohemiancoding.com/sketch -->
    <title>“ copy</title>
    <desc>Created with Sketch.</desc>
    <defs></defs>
    <g id="Welcome" stroke="none" stroke-width="1" fill="none" fill-rule="evenodd">
        <g id="swift-of-pen-book-copy-3" transform="translate(-835.000000, -923.000000)" fill="#F35085">
            <g id="Group-9" transform="translate(235.000000, 407.000000)">
                <g id="Group-8-Copy" transform="translate(600.000000, 509.000000)">
                    <path d="M0,48 C0,40.8174823 0.0496889441,35.6301863 0.149068323,32.4379562 C0.347827081,23.8588379 1.63973963,17.4994124 4.02484472,13.3594891 C6.40994981,9.21956568 10.5838211,7.09975719 16.5465839,7 L18.931677,13.7335766 C15.5527781,13.933091 13.2670867,15.229915 12.0745342,17.6240876 C10.8819816,20.0182601 10.2857143,23.7590986 10.2857143,28.8467153 L19.5279503,28.8467153 L19.5279503,48 L0,48 Z M28.4720497,48 C28.4720497,40.8174823 28.5217386,35.6301863 28.621118,32.4379562 C28.8198768,23.8588379 30.1117893,17.4994124 32.4968944,13.3594891 C34.8819995,9.21956568 39.0558708,7.09975719 45.0186335,7 L47.4037267,13.7335766 C44.0248278,13.933091 41.7391364,15.229915 40.5465839,17.6240876 C39.3540313,20.0182601 38.757764,23.7590986 38.757764,28.8467153 L48,28.8467153 L48,48 L28.4720497,48 Z" id="“-copy"></path>
                </g>
            </g>
        </g>
    </g>
</svg>